<?xml version="1.0" encoding="UTF-8"?>
<svg id="Layer_2" data-name="Layer 2" xmlns="http://www.w3.org/2000/svg" viewBox="0 0 383.44 302.72">
  <defs>
    <style>
      .cls-1 {
        fill: #fff;
      }
    </style>
  </defs>
  <g id="Layer_1-2" data-name="Layer 1">
    <g>
      <path class="cls-1" d="m159.11,302.09c-51.77-9.33-96.43-39.24-125.12-81,41.37,3.18,82.79,1.62,122.06-2.67-1.42,25.6-.82,53.67,3.06,83.67Z"/>
      <path class="cls-1" d="m185.62,82.02c-7.31,17.89-19.65,53.1-26.08,100.14-67.42,19.11-117.24,21.12-136.49,21.04C8.34,175.9,0,144.65,0,111.48,0,69.97,13.04,31.5,35.33,0c33.6,47.69,88.2,79.47,150.3,82.02Z"/>
      <path class="cls-1" d="m275.07,287.32c-15.79,7.31-32.75,12.59-50.52,15.4-5.47-14.35-16.84-47.66-23.16-90.5v-.03c12.5-2.01,24.64-4.28,36.38-6.69,9.07,24.47,21.18,51.83,37.31,81.82Z"/>
      <path class="cls-1" d="m223.33,160.5c-8.9,3.52-17.58,6.78-26.06,9.72-1.25-27.81.34-57.87,6.95-88.32,2.3-.11,4.62-.28,6.89-.51.14,14.86,2.24,41.82,12.22,79.1Z"/>
      <path class="cls-1" d="m379.92,165.12c-9.27,32.18-26.65,60.93-49.79,83.87-8.31-8.59-25.29-27.45-43.35-54.89,42.9-11.06,76.04-22.6,93.14-28.98Z"/>
      <path class="cls-1" d="m383.44,72.19c-43.29,31.1-85.26,54.86-124.41,72.95-9.64-20.04-18.4-42.56-24.95-67.17,48.57-10.26,90.39-38.76,118.06-77.97,15.03,21.29,25.86,45.76,31.3,72.19Z"/>
    </g>
  </g>
</svg>